<?xml version="1.0" encoding="UTF-8" standalone="no"?>
<!-- Created with Inkscape (http://www.inkscape.org/) -->

<svg
   width="24"
   height="24"
   viewBox="0 0 24 24"
   version="1.1"
   id="svg5"
   xml:space="preserve"
   xmlns="http://www.w3.org/2000/svg"
   xmlns:svg="http://www.w3.org/2000/svg"><defs
     id="defs2"><clipPath
       clipPathUnits="userSpaceOnUse"
       id="clipPath9368"><path
         id="path9370"
         style="display:none;opacity:1;fill:#ff0000;stroke-width:0"
         d="m 5.3535156,14.5625 a 2.59375,2.59375 0 0 0 -2.59375,2.59375 2.59375,2.59375 0 0 0 2.59375,2.59375 2.59375,2.59375 0 0 0 2.59375,-2.59375 2.59375,2.59375 0 0 0 -2.59375,-2.59375 z m 37.2929684,0 a 2.59375,2.59375 0 0 0 -2.59375,2.59375 2.59375,2.59375 0 0 0 2.59375,2.59375 2.59375,2.59375 0 0 0 2.59375,-2.59375 2.59375,2.59375 0 0 0 -2.59375,-2.59375 z M 5.3535156,24.625 a 2.59375,2.59375 0 0 0 -2.59375,2.59375 2.59375,2.59375 0 0 0 2.59375,2.59375 2.59375,2.59375 0 0 0 2.59375,-2.59375 2.59375,2.59375 0 0 0 -2.59375,-2.59375 z m 37.2929684,0 a 2.59375,2.59375 0 0 0 -2.59375,2.59375 2.59375,2.59375 0 0 0 2.59375,2.59375 2.59375,2.59375 0 0 0 2.59375,-2.59375 2.59375,2.59375 0 0 0 -2.59375,-2.59375 z" /><path
         id="lpe_path-effect9372"
         style="display:inline;opacity:1;fill:#ff0000;stroke-width:0"
         class="powerclip"
         d="M 0.35362244,5.8295221 H 47.646378 V 42.170478 H 0.35362244 Z M 5.3535156,14.5625 a 2.59375,2.59375 0 0 0 -2.59375,2.59375 2.59375,2.59375 0 0 0 2.59375,2.59375 2.59375,2.59375 0 0 0 2.59375,-2.59375 2.59375,2.59375 0 0 0 -2.59375,-2.59375 z m 37.2929684,0 a 2.59375,2.59375 0 0 0 -2.59375,2.59375 2.59375,2.59375 0 0 0 2.59375,2.59375 2.59375,2.59375 0 0 0 2.59375,-2.59375 2.59375,2.59375 0 0 0 -2.59375,-2.59375 z M 5.3535156,24.625 a 2.59375,2.59375 0 0 0 -2.59375,2.59375 2.59375,2.59375 0 0 0 2.59375,2.59375 2.59375,2.59375 0 0 0 2.59375,-2.59375 2.59375,2.59375 0 0 0 -2.59375,-2.59375 z m 37.2929684,0 a 2.59375,2.59375 0 0 0 -2.59375,2.59375 2.59375,2.59375 0 0 0 2.59375,2.59375 2.59375,2.59375 0 0 0 2.59375,-2.59375 2.59375,2.59375 0 0 0 -2.59375,-2.59375 z" /></clipPath></defs><g
     id="layer2"
     style="display:inline;opacity:1"
     transform="matrix(0.61170486,0,0,0.66089233,-2.6809168,-3.8614159)"><g
       id="layer3"><path
         style="display:inline;opacity:1;fill:#57a52d;fill-opacity:1;stroke:none;stroke-width:0;stroke-dasharray:none"
         id="rect1108"
         width="37.292755"
         height="26.340956"
         x="5.3536224"
         y="10.829522"
         clip-path="url(#clipPath9368)"
         mask="none"
         d="M 5.3536224,10.829522 H 42.646378 V 37.170478 H 5.3536224 Z" /><g
         id="layer5"
         style="display:inline;fill:#efd85e;fill-opacity:1"
         transform="matrix(1,0,0,0.81164704,0,7.0011696)"><rect
           style="opacity:1;fill:#f6df57;fill-opacity:1;stroke:none;stroke-width:0;stroke-dasharray:none"
           id="rect3049"
           width="37.292755"
           height="4.6455336"
           x="5.3536224"
           y="32.524944" /><g
           id="layer9"><path
             style="display:inline;opacity:1;fill:none;fill-opacity:1;stroke:#4c4c4c;stroke-width:0.443993;stroke-linecap:butt;stroke-linejoin:miter;stroke-dasharray:none;stroke-opacity:1"
             d="m 24,32.524944 v 4.645534"
             id="path15729" /><path
             style="display:inline;opacity:1;fill:none;fill-opacity:1;stroke:#4c4c4c;stroke-width:0.443993;stroke-linecap:butt;stroke-linejoin:miter;stroke-dasharray:none;stroke-opacity:1"
             d="m 25.84375,32.524944 v 4.645534"
             id="path15732" /><path
             style="display:inline;opacity:1;fill:none;fill-opacity:1;stroke:#4c4c4c;stroke-width:0.443993;stroke-linecap:butt;stroke-linejoin:miter;stroke-dasharray:none;stroke-opacity:1"
             d="m 27.665728,32.524944 v 4.645534"
             id="path15734" /><path
             style="display:inline;opacity:1;fill:none;fill-opacity:1;stroke:#4c4c4c;stroke-width:0.443993;stroke-linecap:butt;stroke-linejoin:miter;stroke-dasharray:none;stroke-opacity:1"
             d="m 29.477689,32.524944 v 4.645534"
             id="path15736" /><path
             style="display:inline;opacity:1;fill:none;fill-opacity:1;stroke:#4c4c4c;stroke-width:0.443993;stroke-linecap:butt;stroke-linejoin:miter;stroke-dasharray:none;stroke-opacity:1"
             d="m 31.290189,32.524944 v 4.645534"
             id="path15738" /><path
             style="display:inline;opacity:1;fill:none;fill-opacity:1;stroke:#4c4c4c;stroke-width:0.443993;stroke-linecap:butt;stroke-linejoin:miter;stroke-dasharray:none;stroke-opacity:1"
             d="m 33.102689,32.524944 v 4.645534"
             id="path15740" /><path
             style="display:inline;fill:none;fill-opacity:1;stroke:#4c4c4c;stroke-width:0.443993;stroke-linecap:butt;stroke-linejoin:miter;stroke-dasharray:none;stroke-opacity:1"
             d="m 14.950872,32.524944 v 4.645534"
             id="path15732-3" /><path
             style="display:inline;fill:none;fill-opacity:1;stroke:#4c4c4c;stroke-width:0.443993;stroke-linecap:butt;stroke-linejoin:miter;stroke-dasharray:none;stroke-opacity:1"
             d="m 16.77285,32.524944 v 4.645534"
             id="path15734-6" /><path
             style="display:inline;fill:none;fill-opacity:1;stroke:#4c4c4c;stroke-width:0.443993;stroke-linecap:butt;stroke-linejoin:miter;stroke-dasharray:none;stroke-opacity:1"
             d="m 18.584811,32.524944 v 4.645534"
             id="path15736-7" /><path
             style="display:inline;fill:none;fill-opacity:1;stroke:#4c4c4c;stroke-width:0.443993;stroke-linecap:butt;stroke-linejoin:miter;stroke-dasharray:none;stroke-opacity:1"
             d="m 20.397311,32.524944 v 4.645534"
             id="path15738-5" /><path
             style="display:inline;fill:none;fill-opacity:1;stroke:#4c4c4c;stroke-width:0.443993;stroke-linecap:butt;stroke-linejoin:miter;stroke-dasharray:none;stroke-opacity:1"
             d="m 22.209811,32.524944 v 4.645534"
             id="path15740-3" /><path
             style="display:inline;opacity:1;fill:none;fill-opacity:1;stroke:#4c4c4c;stroke-width:0.443993;stroke-linecap:butt;stroke-linejoin:miter;stroke-dasharray:none;stroke-opacity:1"
             d="m 34.930814,32.524944 v 4.645534"
             id="path15742" /><path
             style="display:inline;opacity:1;fill:none;fill-opacity:1;stroke:#4c4c4c;stroke-width:0.443993;stroke-linecap:butt;stroke-linejoin:miter;stroke-dasharray:none;stroke-opacity:1"
             d="m 36.758939,32.524944 v 4.645534"
             id="path15744" /><path
             style="display:inline;opacity:1;fill:none;fill-opacity:1;stroke:#4c4c4c;stroke-width:0.443993;stroke-linecap:butt;stroke-linejoin:miter;stroke-dasharray:none;stroke-opacity:1"
             d="m 38.587064,32.524944 v 4.645534"
             id="path15746" /><path
             style="display:inline;opacity:1;fill:none;fill-opacity:1;stroke:#4c4c4c;stroke-width:0.443993;stroke-linecap:butt;stroke-linejoin:miter;stroke-dasharray:none;stroke-opacity:1"
             d="m 40.415189,32.524944 v 4.645534"
             id="path15748" /><path
             style="display:inline;fill:none;fill-opacity:1;stroke:#4c4c4c;stroke-width:0.443993;stroke-linecap:butt;stroke-linejoin:miter;stroke-dasharray:none;stroke-opacity:1"
             d="m 7.682455,32.524944 v 4.645534"
             id="path16077" /><path
             style="display:inline;fill:none;fill-opacity:1;stroke:#4c4c4c;stroke-width:0.443993;stroke-linecap:butt;stroke-linejoin:miter;stroke-dasharray:none;stroke-opacity:1"
             d="m 9.504433,32.524944 v 4.645534"
             id="path16079" /><path
             style="display:inline;fill:none;fill-opacity:1;stroke:#4c4c4c;stroke-width:0.443993;stroke-linecap:butt;stroke-linejoin:miter;stroke-dasharray:none;stroke-opacity:1"
             d="m 11.316394,32.524944 v 4.645534"
             id="path16081" /><path
             style="display:inline;fill:none;fill-opacity:1;stroke:#4c4c4c;stroke-width:0.443993;stroke-linecap:butt;stroke-linejoin:miter;stroke-dasharray:none;stroke-opacity:1"
             d="m 13.128894,32.524944 v 4.645534"
             id="path16083" /></g></g><g
         id="layer8"
         style="display:inline;opacity:1"><rect
           style="display:inline;opacity:1;fill:#525252;fill-opacity:1;stroke:none;stroke-width:0;stroke-dasharray:none"
           id="rect12588"
           width="7.5"
           height="13.0625"
           x="30"
           y="15.125" /><rect
           style="display:inline;opacity:1;fill:#525252;fill-opacity:1;stroke:none;stroke-width:0;stroke-dasharray:none"
           id="rect13320"
           width="7.5"
           height="13.0625"
           x="20.25"
           y="15.125" /><rect
           style="display:inline;opacity:1;fill:#525252;fill-opacity:1;stroke:none;stroke-width:0;stroke-dasharray:none"
           id="rect13322"
           width="7.5"
           height="13.0625"
           x="10.5"
           y="15.125" /></g></g></g></svg>
