<svg version="1.1" viewBox="0 0 24 24" xml:space="preserve" xmlns="http://www.w3.org/2000/svg"><defs><clipPath id="clipPath9368"><path d="m5.3535 14.562a2.5938 2.5938 0 0 0-2.5938 2.5938 2.5938 2.5938 0 0 0 2.5938 2.5938 2.5938 2.5938 0 0 0 2.5938-2.5938 2.5938 2.5938 0 0 0-2.5938-2.5938zm37.293 0a2.5938 2.5938 0 0 0-2.5938 2.5938 2.5938 2.5938 0 0 0 2.5938 2.5938 2.5938 2.5938 0 0 0 2.5938-2.5938 2.5938 2.5938 0 0 0-2.5938-2.5938zm-37.293 10.062a2.5938 2.5938 0 0 0-2.5938 2.5938 2.5938 2.5938 0 0 0 2.5938 2.5938 2.5938 2.5938 0 0 0 2.5938-2.5938 2.5938 2.5938 0 0 0-2.5938-2.5938zm37.293 0a2.5938 2.5938 0 0 0-2.5938 2.5938 2.5938 2.5938 0 0 0 2.5938 2.5938 2.5938 2.5938 0 0 0 2.5938-2.5938 2.5938 2.5938 0 0 0-2.5938-2.5938z" display="none" fill="#f00" stroke-width="0"/><path class="powerclip" d="m0.35362 5.8295h47.293v36.341h-47.293zm4.9999 8.733a2.5938 2.5938 0 0 0-2.5938 2.5938 2.5938 2.5938 0 0 0 2.5938 2.5938 2.5938 2.5938 0 0 0 2.5938-2.5938 2.5938 2.5938 0 0 0-2.5938-2.5938zm37.293 0a2.5938 2.5938 0 0 0-2.5938 2.5938 2.5938 2.5938 0 0 0 2.5938 2.5938 2.5938 2.5938 0 0 0 2.5938-2.5938 2.5938 2.5938 0 0 0-2.5938-2.5938zm-37.293 10.062a2.5938 2.5938 0 0 0-2.5938 2.5938 2.5938 2.5938 0 0 0 2.5938 2.5938 2.5938 2.5938 0 0 0 2.5938-2.5938 2.5938 2.5938 0 0 0-2.5938-2.5938zm37.293 0a2.5938 2.5938 0 0 0-2.5938 2.5938 2.5938 2.5938 0 0 0 2.5938 2.5938 2.5938 2.5938 0 0 0 2.5938-2.5938 2.5938 2.5938 0 0 0-2.5938-2.5938z" fill="#f00" stroke-width="0"/></clipPath></defs><g transform="matrix(.6117 0 0 .66089 -2.6809 -3.8614)"><g><path x="5.3536224" y="10.829522" width="37.292755" height="26.340956" d="m5.3536 10.83h37.293v26.341h-37.293z" clip-path="url(#clipPath9368)" fill="#57a52d"/><g transform="matrix(1 0 0 .81165 0 7.0012)"><rect x="5.3536" y="32.525" width="37.293" height="4.6455" fill="#f6df57"/><g fill="none" stroke="#4c4c4c" stroke-width=".44399"><path d="m24 32.525v4.6455"/><path d="m25.844 32.525v4.6455"/><path d="m27.666 32.525v4.6455"/><path d="m29.478 32.525v4.6455"/><path d="m31.29 32.525v4.6455"/><path d="m33.103 32.525v4.6455"/><path d="m14.951 32.525v4.6455"/><path d="m16.773 32.525v4.6455"/><path d="m18.585 32.525v4.6455"/><path d="m20.397 32.525v4.6455"/><path d="m22.21 32.525v4.6455"/><path d="m34.931 32.525v4.6455"/><path d="m36.759 32.525v4.6455"/><path d="m38.587 32.525v4.6455"/><path d="m40.415 32.525v4.6455"/><path d="m7.6825 32.525v4.6455"/><path d="m9.5044 32.525v4.6455"/><path d="m11.316 32.525v4.6455"/><path d="m13.129 32.525v4.6455"/></g></g><g fill="#525252"><rect x="30" y="15.125" width="7.5" height="13.062"/><rect x="20.25" y="15.125" width="7.5" height="13.062"/><rect x="10.5" y="15.125" width="7.5" height="13.062"/></g></g></g></svg>
